<?xml version="1.0" standalone="no"?>
<!DOCTYPE svg PUBLIC "-//W3C//DTD SVG 20010904//EN"
 "http://www.w3.org/TR/2001/REC-SVG-20010904/DTD/svg10.dtd">
<svg version="1.0" xmlns="http://www.w3.org/2000/svg"
 width="512.000000pt" height="512.000000pt" viewBox="0 0 512.000000 512.000000"
 preserveAspectRatio="xMidYMid meet">
<metadata>
Created by potrace 1.14, written by Peter Selinger 2001-2017
</metadata>
<g transform="translate(0.000000,512.000000) scale(0.100000,-0.100000)"
fill="#000000" stroke="none">
<path d="M2370 5114 c-502 -44 -962 -219 -1357 -515 -119 -90 -320 -283 -425
-409 -290 -347 -486 -785 -560 -1255 -32 -201 -32 -549 0 -750 45 -284 117
-512 243 -764 136 -274 291 -484 521 -707 388 -375 859 -604 1418 -690 86 -13
175 -18 350 -18 250 0 355 11 575 60 329 73 686 241 972 455 119 90 320 283
425 409 290 347 486 785 560 1255 32 201 32 549 0 750 -74 470 -270 908 -560
1255 -105 126 -306 319 -425 409 -345 259 -736 424 -1164 491 -124 20 -462 34
-573 24z m178 -1851 l-3 -688 -687 -3 -688 -2 0 624 c0 418 4 634 11 653 14
37 47 73 84 89 24 11 157 13 658 14 l627 0 -2 -687z m1328 661 c15 -11 37 -33
48 -48 21 -27 21 -39 24 -667 l2 -639 -687 2 -688 3 -3 688 -2 687 639 -2
c628 -3 640 -3 667 -24z m-1328 -2067 l2 -687 -639 2 c-628 3 -640 3 -667 24
-15 11 -37 33 -48 48 -21 27 -21 39 -24 667 l-2 639 687 -2 688 -3 3 -688z
m1407 63 c0 -571 -1 -628 -17 -656 -21 -39 -71 -82 -106 -92 -15 -4 -304 -7
-642 -7 l-615 0 -3 693 -2 692 692 -2 693 -3 0 -625z"/>
<path d="M2937 2053 c-4 -3 -7 -37 -7 -75 l0 -68 338 2 337 3 3 64 c2 45 -1
67 -10 72 -15 10 -652 12 -661 2z"/>
<path d="M2930 1750 l0 -70 340 0 340 0 0 70 0 70 -340 0 -340 0 0 -70z"/>
</g>
</svg>
